<svg width="512" height="512" viewBox="0 0 512 512" xmlns="http://www.w3.org/2000/svg" role="img" aria-label="Anime avatar">
  <defs>
    <linearGradient id="bg" x1="0" y1="0" x2="1" y2="1">
      <stop offset="0%" stop-color="#2f2a55"/>
      <stop offset="100%" stop-color="#12131f"/>
    </linearGradient>
    <linearGradient id="hair" x1="0" y1="0" x2="1" y2="1">
      <stop offset="0%" stop-color="#ff8e7f"/>
      <stop offset="100%" stop-color="#ff5c87"/>
    </linearGradient>
  </defs>
  <rect width="512" height="512" fill="url(#bg)"/>
  <circle cx="256" cy="280" r="132" fill="#ffd8c4"/>
  <path d="M122 272c0-90 56-156 134-156 87 0 134 70 134 152-32-20-55-22-84-14-36 10-61 9-90-6-33-16-63-13-94 24z" fill="url(#hair)"/>
  <ellipse cx="202" cy="280" rx="30" ry="18" fill="#fff"/>
  <ellipse cx="310" cy="280" rx="30" ry="18" fill="#fff"/>
  <circle cx="202" cy="282" r="11" fill="#252245"/>
  <circle cx="310" cy="282" r="11" fill="#252245"/>
  <circle cx="198" cy="278" r="3" fill="#fff"/>
  <circle cx="306" cy="278" r="3" fill="#fff"/>
  <path d="M214 350c14 18 70 18 84 0" stroke="#b45f6d" stroke-width="8" stroke-linecap="round" fill="none"/>
  <circle cx="162" cy="320" r="16" fill="#ffb3b3" opacity="0.55"/>
  <circle cx="350" cy="320" r="16" fill="#ffb3b3" opacity="0.55"/>
</svg>
